<?xml version="1.0" encoding="UTF-8"?>
<svg xmlns="http://www.w3.org/2000/svg" xml:space="preserve" width="3691px" height="3691px" version="1.0" shape-rendering="geometricPrecision" text-rendering="geometricPrecision" image-rendering="optimizeQuality" fill-rule="evenodd" clip-rule="evenodd"
viewBox="0 0 417.6 417.6"
 xmlns:xlink="http://www.w3.org/1999/xlink">
 <g id="Layer_x0020_1">
  <g id="_2744726043680">
   <path fill="#6666FF" d="M104.38 0l208.84 0c57.64,0 104.38,46.74 104.38,104.38l0 208.84c0,57.64 -46.74,104.38 -104.38,104.38l-208.84 0c-57.64,0 -104.38,-46.74 -104.38,-104.38l0 -208.84c0,-57.64 46.74,-104.38 104.38,-104.38z"/>
   <path fill="white" d="M279.49 32.83c-123.33,15.85 -263.14,170.95 -246.78,282.78 7.36,50.29 48.33,76.74 106.08,69.11 122.09,-16.22 262.37,-170.26 246.1,-282.85 -7.28,-50.43 -48.08,-76.4 -105.4,-69.04l0 0z"/>
   <path fill="#6666FF" d="M205.31 101.78c-5.5,2.81 -5.2,12.95 -6.65,19.97 -8.13,39.18 -22.05,61.58 -61.28,72.95 -20.52,5.97 -41.82,4.31 -35.43,17.72 2.34,4.9 13.46,4.98 20.19,6.35 38.67,7.96 61.36,22.1 72.78,61.32 2.13,7.32 3.57,14.31 4.98,22.23 1.32,7.32 2.51,17.76 12.31,13.16 5.36,-2.51 5.19,-12.86 6.64,-19.89 10.48,-50.17 31.47,-69.5 83.13,-78.06 7.03,-1.19 18.35,-2.38 13.75,-12.26 -2.59,-5.58 -12.86,-5.41 -19.67,-6.69 -38.5,-7.37 -61.45,-21.89 -73.29,-60.94 -2.51,-8.35 -6.3,-31.22 -7.54,-33.13 -1.66,-2.64 -5.96,-4.73 -9.92,-2.73l0 0z"/>
  </g>
 </g>
</svg>
